<svg width="72" height="72" viewBox="0 0 72 72" fill="none" xmlns="http://www.w3.org/2000/svg">
<path d="M22.2283 46.8618C21.0409 45.3944 18.0198 43.6368 14.0269 46.8767L14.8376 47.1676C14.0055 47.7795 12.1333 49.3999 11.3006 50.9863C10.9606 51.5784 9.94801 52.729 8.6174 52.5943C9.37232 53.4365 11.8678 54.9281 15.8105 54.1577C16.164 54.1238 16.8667 54.0975 16.85 54.2629C16.7598 54.4626 16.5336 54.8991 16.3505 55.0477C18.5477 54.7827 22.8555 53.0329 22.5093 48.1528C20.6162 49.4514 16.2563 51.9735 13.9615 51.6733C15.1676 51.5169 18.5823 50.4285 22.5929 47.326L24.4236 45.8405L23.8417 45.364L22.2283 46.8618Z" fill="#91BC4C"/>
<path d="M22.5929 47.326C18.5823 50.4285 15.1676 51.5169 13.9615 51.6733C16.2563 51.9735 20.6162 49.4514 22.5093 48.1528C22.8555 53.0329 18.5477 54.7827 16.3505 55.0477C16.5336 54.8991 16.7598 54.4626 16.85 54.2629C16.8667 54.0975 16.164 54.1238 15.8105 54.1577C11.8678 54.9281 9.37232 53.4365 8.6174 52.5943C9.94801 52.729 10.9606 51.5784 11.3006 50.9863C12.1333 49.3999 14.0055 47.7795 14.8376 47.1676L14.0269 46.8767C18.2374 43.4602 21.3673 45.6008 22.406 47.0982L22.5929 47.326ZM22.5929 47.326L24.4236 45.8405L23.8417 45.364L22.219 46.8704L22.5929 47.326Z" stroke="#91BC4C" stroke-width="0.5"/>
<path d="M18.4144 44.4761C18.5806 42.5958 17.6301 39.2323 12.5075 38.7864L12.8882 39.559C11.8647 39.4207 9.39227 39.2843 7.69097 39.8462C7.035 40.0356 5.5073 40.159 4.64424 39.1373C4.60167 40.2675 5.35907 43.0744 8.7292 45.2608C9.00686 45.4822 9.53044 45.9517 9.40346 46.059C9.19979 46.1399 8.73373 46.2965 8.49887 46.276C10.2627 47.6127 14.5761 49.3488 17.719 45.5996C15.4554 45.2174 10.5678 44.0004 9.12661 42.1896C10.1024 42.9154 13.314 44.5063 18.3539 45.0632L20.7025 45.2677L20.6154 44.5206L18.4144 44.4761Z" fill="#91BC4C"/>
<path d="M18.3539 45.0632C13.314 44.5063 10.1024 42.9154 9.12661 42.1896C10.5678 44.0004 15.4554 45.2174 17.719 45.5996C14.5761 49.3488 10.2627 47.6127 8.49887 46.276C8.73373 46.2965 9.19979 46.1399 9.40346 46.059C9.53044 45.9517 9.00686 45.4822 8.7292 45.2608C5.35907 43.0744 4.60167 40.2675 4.64424 39.1373C5.5073 40.159 7.035 40.0356 7.69097 39.8462C9.39227 39.2843 11.8647 39.4207 12.8882 39.559L12.5075 38.7864C17.9093 39.2566 18.6718 42.971 18.3778 44.7695L18.3539 45.0632ZM18.3539 45.0632L20.7025 45.2677L20.6154 44.5206L18.4016 44.4758L18.3539 45.0632Z" stroke="#91BC4C" stroke-width="0.5"/>
<path d="M43.0736 53.9127C35.6803 57.5169 35.3019 43.6341 36.0368 36.2422L39.7055 34.0593C57.6692 38.8696 56.7267 44.2986 54.01 46.4118C53.9176 55.6071 46.6805 55.2438 43.0736 53.9127Z" fill="#EDD5DF" stroke="#F5C1D5" stroke-width="0.3"/>
<path d="M53.8873 31.3893C57.4915 38.7826 43.6087 39.161 36.2168 38.4261L34.0339 34.7574C38.8442 16.7937 44.2732 17.7362 46.3864 20.4529C55.5818 20.5453 55.2184 27.7823 53.8873 31.3893Z" fill="#F5D8E3" stroke="#F5C1D5" stroke-width="0.3"/>
<path d="M33.7375 15.804C41.4963 13.0745 40.2746 26.9086 38.6939 34.1668L34.7984 35.9131C17.5077 29.0674 19.0686 23.783 22.0105 21.9964C23.1604 12.8728 30.3076 14.0666 33.7375 15.804Z" fill="#F0DFE3" stroke="#F5C1D5" stroke-width="0.3"/>
<path d="M15.757 29.4826C17.0043 21.3528 28.6318 28.9472 34.2896 33.7607L33.9949 38.0196C19.8112 50.0468 15.8851 46.1806 15.6951 42.744C8.18891 37.4318 12.6088 31.6896 15.757 29.4826Z" fill="#EDD5DF" stroke="#F5C1D5" stroke-width="0.3"/>
<path d="M22.9643 53.245C15.3155 50.2208 25.3056 40.5735 31.2568 36.1279L35.3435 37.3624C43.9152 53.8656 39.2726 56.8335 35.8798 56.2546C29.0313 62.3914 24.4159 56.8051 22.9643 53.245Z" fill="#F0DFE3" stroke="#F5C1D5" stroke-width="0.3"/>
<circle cx="39.8709" cy="38.3916" r="3.8639" transform="rotate(120.373 39.8709 38.3916)" fill="#C54365"/>
<circle cx="34.8592" cy="40.8311" r="3.8639" transform="rotate(120.373 34.8592 40.8311)" fill="#C54365"/>
<circle cx="33.4334" cy="31.0381" r="3.8639" transform="rotate(120.373 33.4334 31.0381)" fill="#C54365"/>
<circle cx="39.5487" cy="32.8311" r="3.8639" transform="rotate(120.373 39.5487 32.8311)" fill="#C54365"/>
<circle cx="30.3065" cy="36.3702" r="3.8639" transform="rotate(120.373 30.3065 36.3702)" fill="#C54365"/>
<circle cx="37.8771" cy="36.6966" r="2.07098" transform="rotate(120.373 37.8771 36.6966)" fill="#782038"/>
<circle cx="35.1896" cy="38.0052" r="2.07098" transform="rotate(120.373 35.1896 38.0052)" fill="#782038"/>
<circle cx="34.4239" cy="32.7552" r="2.07098" transform="rotate(120.373 34.4239 32.7552)" fill="#782038"/>
<circle cx="37.7013" cy="33.7162" r="2.07098" transform="rotate(120.373 37.7013 33.7162)" fill="#782038"/>
<circle cx="32.7501" cy="35.6146" r="2.07098" transform="rotate(120.373 32.7501 35.6146)" fill="#782038"/>
<path d="M37.1637 36.9498C36.0809 37.9567 34.387 37.8952 33.3801 36.8125C32.3733 35.7298 32.4348 34.0359 33.5175 33.029C34.6002 32.0221 37.0275 31.0889 38.0343 32.1716C39.0412 33.2543 38.2464 35.943 37.1637 36.9498Z" fill="#E8B84E"/>
<circle cx="0.684705" cy="0.684705" r="0.684705" transform="matrix(0.680993 0.73229 0.73229 -0.680993 40.3711 36.2402)" fill="#E8B84E"/>
<circle cx="0.684705" cy="0.684705" r="0.684705" transform="matrix(0.680993 0.73229 0.73229 -0.680993 40.8477 33.7617)" fill="#E8B84E"/>
</svg>
